# xmcd
# Copyright (C) 1995-1998 Ti Kan
#
# Track frame offsets:
#       150
#       23198
#       44129
#       59546
#       73853
#       85693
#       107721
#       122353
#       141742
#       154783
#       172175
#       186427
#       210951
#       224025
#       240138
#       266047
#
# Disc length: 3869 seconds
#
# Revision: 0
# Processed by: cddbd v1.5.2PL0 Copyright (c) Steve Scherf et al.
# Submitted via: CD-Import v1.0
#
DISCID=f60f1b10
DTITLE=Babyshambles - Down In Albion
DYEAR=2005
DGENRE=
TTITLE0=La Belle Et La Bete
TTITLE1=Fuck Forever
TTITLE2=A´rebours
TTITLE3=The 32nd Of December
TTITLE4=Pipedown
TTITLE5=Sticks And Stones
TTITLE6=Killamangiro
TTITLE7=8 Dead Boys
TTITLE8=In Love With A Feeling
TTITLE9=Pentonville
TTITLE10=What Katy Did Next
TTITLE11=Albion
TTITLE12=Back From The Dead
TTITLE13=Loyalty Song
TTITLE14=Up The Morning
TTITLE15=Merry Go Round
EXTD=
EXTT0=
EXTT1=
EXTT2=
EXTT3=
EXTT4=
EXTT5=
EXTT6=
EXTT7=
EXTT8=
EXTT9=
EXTT10=
EXTT11=
EXTT12=
EXTT13=
EXTT14=
EXTT15=
PLAYORDER=
